<?xml version="1.0" encoding="UTF-8"?>
<svg xmlns="http://www.w3.org/2000/svg" width="208" height="68.6" xmlns:xlink="http://www.w3.org/1999/xlink" version="1.1" viewBox="0 0 208 68.6">
  <defs>
    <style>
      .cls-1 {
        fill: none;
      }

      .cls-2 {
        fill: #f29003;
      }

      .cls-3 {
        clip-path: url(#clippath);
      }
    </style>
    <clipPath id="clippath">
      <rect class="cls-1" width="208" height="68.6"/>
    </clipPath>
  </defs>
  <!-- Generator: Adobe Illustrator 28.7.2, SVG Export Plug-In . SVG Version: 1.2.0 Build 154)  -->
  <g>
    <g id="Laag_1">
      <g class="cls-3">
        <g id="Group_15">
          <path id="Path_1" d="M114.8,65.4c-1,.3-2,.5-3.1.5-1.4.1-2.7-.3-3.8-1.2-.9-.9-1.3-2-1.3-3.3,0-3.1,2.3-4.7,5.3-4.7.9,0,1.8.1,2.6.4l-.5,1.9c-.7-.3-1.4-.4-2.1-.4-1.5,0-2.7,1.1-2.8,2.5,0,1.5,1.1,2.7,2.5,2.8,0,0,0,0,0,0,.3,0,.5,0,.7,0v-1.5h-1.2v-1.9h3.5v4.9Z"/>
          <path id="Path_2" d="M116.2,61.5c0-1,0-1.7,0-2.2h2.1v1.2h.1c.2-.8.9-1.3,1.7-1.3.2,0,.3,0,.5,0v2.3c-.2,0-.4,0-.6,0-.7,0-1.2.3-1.3.8,0,.1,0,.3,0,.4v3.2h-2.4v-4.3Z"/>
          <path id="Path_3" d="M128.2,62.5c.1,1.8-1.3,3.4-3.1,3.5-.1,0-.3,0-.4,0-1.8.1-3.4-1.2-3.5-3,0-.1,0-.2,0-.4,0-1.8,1.3-3.4,3.1-3.5.2,0,.3,0,.5,0,1.8-.1,3.3,1.2,3.4,3,0,.1,0,.2,0,.3M123.7,62.5c0,1,.3,1.7,1.1,1.7s1-.7,1-1.7-.3-1.7-1-1.7-1.1.9-1.1,1.7"/>
          <path id="Path_4" d="M129.4,61.5c0-.9,0-1.6,0-2.2h2.1v.8h.2c.5-.6,1.2-1,2-1,1.5,0,2.4,1,2.4,2.8v3.9h-2.4v-3.6c0-.8-.3-1.2-.8-1.2-.4,0-.7.2-.8.6,0,.2,0,.3,0,.5v3.7h-2.4v-4.3Z"/>
          <path id="Path_5" d="M139.8,57.4c0,.6-.5,1.1-1.1,1.2,0,0,0,0,0,0-.6,0-1.1-.6-1-1.2,0-.6.6-1.1,1.2-1,.6,0,1,.5,1,1.1M137.4,59.3h2.4v6.6h-2.4v-6.6Z"/>
          <path id="Path_6" d="M141.3,61.5c0-.9,0-1.6,0-2.2h2.1v.8h.2c.5-.6,1.2-1,2-1,1.5,0,2.4,1,2.4,2.8v3.9h-2.4v-3.6c0-.8-.3-1.2-.8-1.2-.4,0-.7.2-.8.6,0,.2,0,.3,0,.5v3.7h-2.4v-4.3Z"/>
          <path id="Path_7" d="M155.7,64.9c.1,1.1-.3,2.2-1,2.9-.8.6-1.8.9-2.8.8-.8,0-1.7-.1-2.4-.5l.5-1.8c.6.3,1.2.5,1.9.5.8,0,1.4-.5,1.5-1.2,0,0,0-.2,0-.3v-.3h0c-.4.5-1,.8-1.6.7-1.6,0-2.8-1.3-2.8-3.2s1.3-3.4,3-3.4c.7,0,1.3.3,1.7.8h0v-.7h2.2c0,.4,0,1,0,2v3.6ZM153.3,62c0-.1,0-.2,0-.3,0-.4-.4-.7-.9-.7-.6,0-1.1.6-1.1,1.6s.4,1.5,1.1,1.5c.4,0,.8-.3.8-.7,0-.2,0-.3,0-.5v-.9Z"/>
          <path id="Path_8" d="M159.2,63.4c0,.5.8.8,1.7.8.6,0,1.2,0,1.8-.3l.3,1.6c-.8.3-1.6.4-2.5.4-2.3,0-3.6-1.3-3.6-3.4,0-1.8,1.3-3.4,3.2-3.5,0,0,.1,0,.2,0,2.1,0,3,1.6,3,3.4,0,.3,0,.6,0,.9h-4.1ZM161.1,61.7c0-.5-.3-1-.9-1.1,0,0,0,0,0,0-.6,0-1,.5-1,1.1h2Z"/>
          <path id="Path_9" d="M164.4,61.5c0-.9,0-1.6,0-2.2h2.1v.8h.2c.5-.6,1.2-1,2-1,1.5,0,2.4,1,2.4,2.8v3.9h-2.4v-3.6c0-.8-.3-1.2-.8-1.2-.4,0-.7.2-.8.6,0,.2,0,.3,0,.5v3.7h-2.4v-4.3Z"/>
          <path id="Path_10" d="M29.2,51.5C7.4,51.5,0,39.8,0,25.6,0,12.1,9.4,0,30,0c7.4,0,13,1.1,17.3,3l-4.3,10.7c-3.3-1-6.7-1.4-10.2-1.4-7.7,0-12.7,3.6-12.8,13.2s2.9,13.9,7.7,13.9c.5,0,.9,0,1.4-.2v-9.5h-4v-9.7h22.8s0,28.3,0,28.3c-3.9,1.9-10.1,3-18.8,3"/>
          <path id="Path_11" d="M73.1,62.7h-15.9s5.7-12.3,5.7-12.3l-11.5-30.8h16s2.3,13.7,2.3,13.7c.3,1.9.6,3.9.7,5.9h.1c.2-2,.5-3.9,1-5.9l3.2-13.7h14.3s-16,43.1-16,43.1Z"/>
          <path id="Path_12" d="M106,51.3c-11.5,0-18-3.4-18-10.6,0-7.8,9.7-10,20.3-10.8v-1c0-1.7-1.7-2.2-4.7-2.2-3.5,0-7,.7-10.3,1.8l-3-7.4c5.3-1.7,10.8-2.5,16.3-2.4,9.6,0,15.8,3.6,15.8,12.8v17.3c-3.3,1.4-9,2.4-16.4,2.4M108.3,35.5c-3.5.1-6.2,1-6.2,4.6,0,2.7,1.6,3.9,4.5,3.9.6,0,1.1,0,1.7-.2v-8.3Z"/>
          <path id="Path_13" d="M138.1,51.3c-4.9,0-9.6-1.1-12.1-2.4l3.4-8.3c1.9,1.1,4.1,1.7,6.3,1.8,1.3,0,2.2-.6,2.2-1.4,0-3.7-11-2.7-11-11.4,0-5.9,5.5-10.8,13.5-10.8,5.3,0,8.5.6,12.4,2.4l-3.3,7.4c-1.6-.9-3.5-1.5-5.4-1.5-1.5,0-2.3.7-2.3,1.6,0,3.9,11.8,3.1,11.8,11.9,0,6.2-5.7,10.7-15.5,10.7"/>
          <path id="Path_14" d="M182.1,0c-14.3,0-25.9,11.6-25.9,25.9,0,14.3,11.6,25.9,25.9,25.9,14.3,0,25.9-11.6,25.9-25.9C208,11.6,196.5,0,182.2,0c0,0,0,0,0,0M203.2,17.4c-.9-.1-2.1-.3-3.5-.4v-5.4c1.4,1.8,2.6,3.7,3.5,5.8M194.9,7.2v9.4c-1.7,0-3.6-.1-5.4,0V4.4c1.9.6,3.7,1.6,5.4,2.8M179.3,3.3c1.8-.2,3.6-.2,5.5,0v13.6c-1.9.2-3.7.7-5.5,1.5V3.3ZM169.2,7.2c1.7-1.1,3.5-2,5.4-2.7v16.4c-.3.1-.5.2-.5.2-1.6.4-3.2.6-4.9.6V7.2ZM164.5,11.5v10.1h-4.7c.7-3.7,2.3-7.2,4.7-10.1M164.5,40.3c-2.4-2.9-4-6.4-4.7-10.1h4.7v10.1ZM174.6,47.4c-1.9-.7-3.7-1.6-5.4-2.7v-14.4c1.6,0,3.3.2,4.9.6,0,0,.2,0,.5.2v16.4ZM179.3,48.5v-15.1c1.7.7,3.6,1.2,5.5,1.5v13.6c-1.8.2-3.6.2-5.5,0M194.9,44.7c-1.7,1.1-3.5,2.1-5.4,2.7v-12.1c1.8,0,3.7,0,5.4,0v9.5ZM199.7,40.3v-5.4c1.4-.1,2.6-.3,3.5-.4-.9,2.1-2,4.1-3.5,5.8M179.8,31c-1.6-.9-3.3-1.8-5-2.4h0,0c-2-.5-4.1-.8-6.2-.7h-9.2c0-.6,0-1.3,0-1.9s0-1.3,0-1.9h9.2c2.1,0,4.2-.2,6.2-.7,1.7-.7,3.4-1.5,5-2.4,6.3-3.4,22.1-1.3,24.2-.9,1.1,3.9,1.1,8.1,0,12.1-2.1.3-17.9,2.5-24.2-.9"/>
          <path id="Path_15" class="cls-2" d="M174.9,28.6c-2-.5-4.1-.8-6.2-.7h-9.2c0-.7,0-1.3,0-1.9s0-1.3,0-1.9h9.2c2.1,0,4.2-.2,6.2-.7,1.7-.7,3.4-1.5,5-2.4,6.3-3.4,22.1-1.3,24.2-.9,1.1,3.9,1.1,8.1,0,12-2.1.3-17.9,2.5-24.2-.9-1.6-.9-3.3-1.8-5-2.4"/>
          <path id="Path_16" d="M174.9,28.6h0,0"/>
        </g>
      </g>
    </g>
  </g>
</svg>